<?xml version="1.0" standalone="no"?>
<!DOCTYPE svg PUBLIC "-//W3C//DTD SVG 20010904//EN"
 "http://www.w3.org/TR/2001/REC-SVG-20010904/DTD/svg10.dtd">
<svg version="1.0" xmlns="http://www.w3.org/2000/svg"
 width="121.000000pt" height="121.000000pt" viewBox="0 0 121.000000 121.000000"
 preserveAspectRatio="xMidYMid meet">

<g transform="translate(0.000000,121.000000) scale(0.100000,-0.100000)"
fill="#000000" stroke="none">
<path d="M155 1199 c-48 -14 -106 -68 -131 -123 l-24 -51 0 -420 c0 -420 0
-420 24 -470 25 -54 71 -100 123 -122 26 -10 123 -13 460 -13 477 0 472 0 540
71 63 67 63 65 63 534 0 469 0 467 -63 534 -68 71 -63 71 -537 70 -234 0 -438
-5 -455 -10z m140 -376 c3 -10 26 -76 51 -146 24 -71 46 -133 50 -138 3 -6 24
40 45 103 21 62 46 132 55 156 l16 42 64 0 64 0 -19 -47 c-10 -27 -49 -130
-87 -231 l-69 -182 -66 0 -65 0 -62 163 c-34 89 -73 192 -87 230 l-25 67 64 0
c52 0 65 -3 71 -17z m715 -33 l0 -49 -117 -3 -118 -3 0 -35 0 -35 100 -6 c55
-3 111 -11 123 -18 67 -36 69 -215 4 -250 -22 -12 -290 -15 -330 -5 -20 6 -23
12 -20 48 l3 41 135 0 135 0 3 43 3 42 -100 0 c-118 0 -144 8 -167 51 -25 49
-16 160 15 193 30 32 38 33 199 35 l132 1 0 -50z"/>
</g>
</svg>
